<svg class="pbimage_pbimage__wrapper__image__0LEis" viewBox="40 48 301 339" xmlns="http://www.w3.org/2000/svg" style="max-height:500px" width="301" height="339">
  <g stroke-linejoin="round" stroke-linecap="round" stroke="#938EA6" fill="none">
    <path d="m228.9 243.2-1.5-1.32"/>
    <path stroke-dasharray="0 0 3.99 3.99" d="M224.41 239.24c-11.24-10.01-22.13-20.48-31.06-32.58-10.12-13.7-17.66-29.71-19.08-46.68-.67-7.96.13-16.36 4.31-23.17 3.79-6.17 10-10.49 16.5-13.69 3.28-1.62 22.63-5.57 31.54 8.37 7.64 11.95 9.32 42.34-15.64 46.62-12.2 2.09-24.78 2.59-36.54-1.3s-21.8-12.88-26.62-24.29c-2.37-5.61-3.5-11.68-3.99-17.75-.66-8.2-.15-16.66 3-24.26 4.71-11.34 14.62-20.44 26.13-24.73 39.94-14.86 82.28-3.55 110.7-3.1"/>
    <path d="M285.67 82.69c.67 0 1.34-.01 2-.03"/>
  </g>
  <g stroke-linejoin="round" stroke-linecap="round" stroke="#938EA6">
    <path fill="#191919" d="M331.69 71.25c-.5 2.37-1.39 4.63-2.4 6.84-3.08-1.56-7.51-2.54-12.43-2.54-5.35 0-10.11 1.16-13.2 2.96-4.18-6.09-5.81-19.32 1.22-21.33 5.72-1.63 9.05 9.07 10.14 12.87-.38-4.54 1.27-9.22 4.42-12.51.49-.51 1.02-.99 1.66-1.28.74-.34 1.59-.38 2.41-.3 3.24.33 6.06 2.73 7.42 5.7 1.37 2.96 1.43 6.4.76 9.59"/>
    <path fill="#F58F7C" d="M333.71 83.37c0 2.49-2.53 4.71-6.46 6.14V77.22q1.095.39 2.04.87c2.74 1.4 4.42 3.25 4.42 5.28"/>
    <path fill="#191919" d="M327.25 77.22v12.29c-2.86 1.04-6.47 1.67-10.39 1.67h-.11V75.55h.11c3.92 0 7.53.62 10.39 1.67"/>
    <path fill="#F58F7C" d="M316.75 75.55v15.63c-4.08 0-7.8-.7-10.7-1.83V77.38c2.9-1.13 6.63-1.82 10.7-1.83"/>
    <path fill="#191919" d="M306.05 77.38v11.97c-3.69-1.42-6.04-3.57-6.04-5.98 0-1.84 1.37-3.52 3.65-4.86.71-.41 1.51-.8 2.39-1.13"/>
  </g>
  <path fill="#F58F7C" d="M60.59 193.34h88.59c4.45 0 9.06 2.5 11.83 6.43l15.07 21.29c2.78 3.92 7.38 6.43 11.83 6.43h83.19c6.35 0 12.62 5.02 14 11.22l21.68 97.08c1.38 6.2-2.64 11.22-8.99 11.22H94.91c-6.35 0-12.62-5.02-14-11.22L51.6 204.57c-1.38-6.2 2.64-11.22 8.99-11.22Z"/>
  <path stroke-linejoin="round" stroke-linecap="round" stroke="#938EA6" fill="#F58F7C" d="M60.59 193.34h88.59c4.45 0 9.06 2.5 11.83 6.43l15.07 21.29c2.78 3.92 7.38 6.43 11.83 6.43h83.19c6.35 0 12.62 5.02 14 11.22l21.68 97.08c1.38 6.2-2.64 11.22-8.99 11.22H94.91c-6.35 0-12.62-5.02-14-11.22L51.6 204.57c-1.38-6.2 2.64-11.22 8.99-11.22Z"/>
  <path stroke-linejoin="round" stroke-linecap="round" stroke="#938EA6" fill="none" d="M60.59 193.34h88.59c4.45 0 9.06 2.5 11.83 6.43l15.07 21.29c2.78 3.92 7.38 6.43 11.83 6.43h83.19c6.35 0 12.62 5.02 14 11.22l21.68 97.08c1.38 6.2-2.64 11.22-8.99 11.22H94.91c-6.35 0-12.62-5.02-14-11.22L51.6 204.57c-1.38-6.2 2.64-11.22 8.99-11.22Z"/>
  <path stroke-linejoin="round" stroke-linecap="round" stroke="#938EA6" fill="#191919" d="M321.44 205.77H118.42c-4.27 0-7.92 3.09-8.61 7.31l-20.65 125.3c-.78 4.76 2.89 8.62 8.2 8.62h200.28c5.97 0 11.52-4.34 12.4-9.69l20.01-121.4c.88-5.31-3.22-10.14-8.61-10.14"/>
  <rect stroke-linejoin="round" stroke-linecap="round" stroke="#938EA6" fill="#191919" ry="10.07" rx="10.07" height="20.14" width="109.85" y="273.37" x="173.7"/>
  <g stroke-linejoin="round" stroke-linecap="round" stroke="#938EA6">
    <path fill="#7E739C" d="M256.93 360.97a5.118 5.118 0 0 0 3.62-8.74l-40.84-40.84c-2-2-5.24-2-7.24 0s-2 5.24 0 7.24l40.84 40.84c1 1 2.31 1.5 3.62 1.5"/>
    <path fill="#F58F7C" d="M272.33 378.92c1.97 0 3.93-.75 5.43-2.25 3-3 3-7.86 0-10.86l-43.84-43.84c-3-3-7.86-3-10.86 0s-3 7.86 0 10.86l43.84 43.84c1.5 1.5 3.47 2.25 5.43 2.25"/>
    <path fill="#191919" d="M130.71 283.6c0-28.19 22.94-51.13 51.13-51.13s51.13 22.94 51.13 51.13-22.94 51.13-51.13 51.13-51.13-22.94-51.13-51.13m10.24 0c0 22.55 18.34 40.89 40.89 40.89s40.89-18.34 40.89-40.89-18.34-40.89-40.89-40.89-40.89 18.34-40.89 40.89"/>
  </g>
</svg>